<svg width="144" height="130" viewBox="0 0 144 130" fill="none" xmlns="http://www.w3.org/2000/svg">
<path d="M128.651 64.0725C128.59 66.6247 128.206 69.1546 127.512 71.5876C127.496 71.644 127.48 71.6996 127.463 71.7561H123.212C123.216 71.7055 123.221 71.6491 123.225 71.5876C123.509 67.9547 125.143 45.8443 123.189 42.0631C123.36 42.3699 128.981 52.5293 128.651 64.0725Z" fill="#E6E6E6"/>
<path d="M127.556 71.5898C127.521 71.6455 127.484 71.7012 127.446 71.7561H124.284C124.308 71.7087 124.336 71.653 124.368 71.5898C124.891 70.5439 126.437 67.4171 127.872 64.1755C129.415 60.6919 130.83 57.0762 130.711 55.7676C130.747 56.0627 131.815 65.0601 127.556 71.5898Z" fill="#E6E6E6"/>
<path d="M96.9033 85.4605L97.473 80.0346L113.566 75.2664L111.714 68.8539C113.004 64.5833 115.268 62.4897 119.404 64.5789L126.52 69.6822C127.211 70.1782 127.775 70.8796 128.151 71.7131C128.527 72.5465 128.702 73.4814 128.658 74.4199C128.615 75.3621 128.352 76.2733 127.897 77.0573C127.442 77.8413 126.813 78.4689 126.074 78.8739C118.109 83.2332 107.957 84.9013 96.9033 85.4605Z" fill="#FFB8B8"/>
<path d="M97.8824 87.4179L92.4998 86.5873L87.4653 87.6972C87.1568 87.7652 86.8384 87.76 86.532 87.6821C86.2255 87.6041 85.9385 87.4552 85.6905 87.2456C85.4426 87.0361 85.2397 86.7709 85.096 86.4684C84.9522 86.1658 84.8709 85.8332 84.8578 85.4934C84.8432 85.1134 84.9142 84.7353 85.0647 84.3914C85.2152 84.0476 85.4407 83.7484 85.722 83.5195L93.611 77.0988C94.2876 76.5481 95.1238 76.276 95.9693 76.3313C96.8149 76.3865 97.6146 76.7656 98.2248 77.4003L100.189 79.4438C98.7835 80.3858 97.7382 81.7994 97.1134 83.7631C98.4645 84.5654 98.7208 85.7837 97.8824 87.4179Z" fill="#2F2E41"/>
<path d="M102.379 29.5007C104.799 29.5007 106.76 27.1998 106.76 24.3616C106.76 21.5233 104.799 19.2224 102.379 19.2224C99.9599 19.2224 97.9985 21.5233 97.9985 24.3616C97.9985 27.1998 99.9599 29.5007 102.379 29.5007Z" fill="#FFB8B8"/>
<path d="M110.046 34.8981L99.0938 39.7791C99.9839 35.0445 100.427 30.7316 99.0938 28.0968L106.118 27.2166C105.77 29.2415 107.547 31.9532 110.046 34.8981Z" fill="#FFB8B8"/>
<path d="M91.7372 85.4606L87.9586 85.1289C85.6438 73.6929 84.4586 62.8834 84.9759 53.0184C85.049 51.5782 85.5901 50.2276 86.4857 49.2499C87.3812 48.2722 88.5616 47.7435 89.7791 47.7746C90.949 47.8061 92.0669 48.3532 92.9147 49.3089L97.801 54.8179C99.98 57.2555 101.672 60.2394 102.752 63.5512C104.136 67.8453 103.639 70.2526 100.335 69.8438C98.271 69.5712 96.3723 68.3753 95.0271 66.5002L91.4573 61.5851L91.7372 85.4606Z" fill="#FFB8B8"/>
<path d="M88.8188 99.1568C88.3489 99.118 87.8924 98.943 87.4846 98.6451C87.0768 98.3473 86.7287 97.9348 86.4673 97.4394C86.2058 96.9441 86.0381 96.3793 85.9771 95.7888C85.916 95.1983 85.9633 94.5979 86.1152 94.0342L86.815 91.4384L87.3461 84.8892C88.1642 82.7778 89.3229 83.0937 90.6656 84.7213C91.5193 84.6153 91.7025 83.5358 91.5951 82.0345L94.2869 86.6172C94.5173 87.0094 94.6603 87.4725 94.701 87.9584C94.7417 88.4442 94.6787 88.935 94.5184 89.3795L91.8093 96.895C91.5511 97.6112 91.1268 98.2111 90.5927 98.6151C90.0585 99.0191 89.4398 99.208 88.8188 99.1568Z" fill="#2F2E41"/>
<path d="M126.475 69.0575C121.071 72.5813 119.378 72.6835 113.989 75.1822L109.316 72.1618C103.828 74.4936 99.9781 71.2971 95.8081 66.5405C98.537 61.3177 97.3301 54.5307 99.0208 54.6266L119.246 61.9259L120.122 64.4429L126.475 69.0575Z" fill="#2F2E41"/>
<path d="M119.903 63.5905C112.624 67.0789 104.787 63.3856 98.0972 55.2683L93.6678 35.4627C93.6154 35.2445 93.6039 35.0168 93.6341 34.7935C93.6643 34.5703 93.7355 34.3562 93.8432 34.1646C93.951 33.9729 94.093 33.8078 94.2607 33.6793C94.4283 33.5507 94.6179 33.4616 94.8178 33.4173L99.9578 32.2792L102.488 36.7287L107.549 31.7848L112.923 33.7301C113.638 33.9888 114.276 34.4575 114.768 35.0863C115.261 35.715 115.59 36.4802 115.721 37.3L119.903 63.5905Z" fill="#00BFA6"/>
<path opacity="0.2" d="M108.207 80.7038C107.872 80.5399 107.572 80.2752 107.332 79.9319C107.093 79.5885 106.921 79.1766 106.832 78.7307C106.742 78.2848 106.737 77.8179 106.818 77.3692C106.898 76.9204 107.061 76.5029 107.294 76.1517L110.202 71.7561L112.237 73.2233L111.189 78.6993C111.113 79.0955 110.972 79.4666 110.776 79.7879C110.58 80.1092 110.333 80.3733 110.051 80.5629C109.769 80.7524 109.459 80.863 109.141 80.8873C108.823 80.9116 108.505 80.849 108.207 80.7038Z" fill="black"/>
<path d="M108.207 79.5618C107.872 79.3979 107.572 79.1331 107.332 78.7898C107.093 78.4465 106.921 78.0346 106.832 77.5887C106.742 77.1428 106.737 76.6759 106.818 76.2271C106.898 75.7784 107.061 75.3609 107.294 75.0097L110.202 70.6141L112.237 72.0813L111.189 77.5573C111.113 77.9535 110.972 78.3246 110.776 78.6459C110.58 78.9671 110.333 79.2313 110.051 79.4208C109.769 79.6104 109.459 79.721 109.141 79.7453C108.823 79.7696 108.505 79.707 108.207 79.5618Z" fill="#FFB8B8"/>
<path d="M113.416 74.0402L110.046 71.3754L114.961 55.8865L113.136 34.0689L114.801 35.3033C115.694 35.9658 116.465 36.8367 117.067 37.8632C117.668 38.8897 118.087 40.0504 118.299 41.2748L120.999 56.8858C119.817 64.0815 117.848 70.4125 113.416 74.0402Z" fill="#00BFA6"/>
<path opacity="0.2" d="M111.142 48.9154L113.332 59.0037L111.53 64.9039L111.142 48.9154Z" fill="black"/>
<path d="M97.362 23.7998C97.362 23.7998 94.4301 14.0297 103.391 16.0788C104.781 16.3966 105.981 17.2192 106.937 18.2952C107.022 18.3893 107.127 18.4632 107.244 18.5117C107.36 18.5602 107.486 18.5822 107.612 18.576C109.043 18.576 109.927 23.7843 107.064 26.0746C107.064 26.0746 107.649 22.9926 106.587 21.9425C106.396 21.7648 106.236 21.5552 106.114 21.3229C105.423 19.9034 103.1 19.4375 101.498 19.5583C100.68 19.62 100.608 21.0721 99.7029 20.8693C97.6425 20.4078 96.9849 22.838 97.362 23.7998Z" fill="#2F2E41"/>
<path d="M105.662 39.0275L105.607 39.454L105.267 42.0862L104.709 46.3967L104.57 47.476C104.559 47.5584 104.521 47.6339 104.461 47.6885C104.402 47.7432 104.326 47.7733 104.247 47.7733H100.53C100.452 47.7733 100.376 47.7433 100.316 47.6888C100.257 47.6343 100.218 47.559 100.208 47.4768L100.066 46.3967L99.4989 42.0862L99.1525 39.4521L99.0969 39.0283C99.0904 38.9796 99.094 38.93 99.1072 38.8829C99.1205 38.8358 99.1432 38.7922 99.1737 38.7551C99.2043 38.718 99.242 38.6883 99.2843 38.6679C99.3267 38.6476 99.3727 38.637 99.4192 38.637H105.34C105.386 38.637 105.432 38.6476 105.474 38.6679C105.517 38.6882 105.554 38.7179 105.585 38.7548C105.615 38.7918 105.638 38.8353 105.651 38.8823C105.665 38.9293 105.668 38.9788 105.662 39.0275Z" fill="#E6E6E6"/>
<path d="M100.496 37.495H105.358C105.398 37.495 105.438 37.5039 105.476 37.5212C105.513 37.5384 105.547 37.5638 105.575 37.5957C105.604 37.6276 105.626 37.6655 105.642 37.7073C105.657 37.749 105.665 37.7937 105.665 37.8389V38.2931C105.665 38.3843 105.633 38.4718 105.575 38.5363C105.518 38.6008 105.44 38.637 105.358 38.637H100.496C100.415 38.637 100.336 38.6008 100.279 38.5363C100.221 38.4718 100.189 38.3843 100.189 38.2931V37.8389C100.189 37.7937 100.197 37.749 100.212 37.7073C100.228 37.6655 100.25 37.6276 100.279 37.5957C100.307 37.5638 100.341 37.5384 100.379 37.5212C100.416 37.5039 100.456 37.495 100.496 37.495Z" fill="#3F3D56"/>
<path d="M106.453 39.4173C104.109 39.8996 101.745 39.8996 99.4008 39.4173C99.3605 39.4173 99.3205 39.4024 99.2833 39.3733C99.246 39.3442 99.2122 39.3015 99.1837 39.2478C99.1552 39.1941 99.1325 39.1303 99.1171 39.06C99.1017 38.9898 99.0938 38.9145 99.0938 38.8385V38.0738C99.0938 37.9978 99.1017 37.9225 99.1171 37.8523C99.1326 37.7821 99.1552 37.7183 99.1837 37.6645C99.2122 37.6108 99.246 37.5681 99.2833 37.539C99.3205 37.5099 99.3605 37.495 99.4008 37.495C101.743 38.0378 104.111 38.0378 106.453 37.495C106.535 37.495 106.613 37.556 106.67 37.6645C106.728 37.7731 106.76 37.9203 106.76 38.0738V38.8385C106.76 38.992 106.728 39.1393 106.67 39.2478C106.613 39.3563 106.535 39.4173 106.453 39.4173Z" fill="#3F3D56"/>
<path d="M102.927 44.3472C103.834 44.3472 104.57 43.8359 104.57 43.2052C104.57 42.5744 103.834 42.0631 102.927 42.0631C102.02 42.0631 101.284 42.5744 101.284 43.2052C101.284 43.8359 102.02 44.3472 102.927 44.3472Z" fill="white"/>
<path d="M106.746 46.907C106.791 47.3611 106.731 47.82 106.57 48.2451C106.409 48.6702 106.152 49.049 105.821 49.3499C105.489 49.6508 105.093 49.8649 104.665 49.9743C104.237 50.0837 103.79 50.0851 103.362 49.9785L97.9985 48.6443L98.1268 45.6793L103.385 44.4205C103.765 44.3294 104.16 44.3232 104.543 44.4021C104.926 44.4811 105.288 44.6436 105.606 44.8787C105.924 45.1138 106.19 45.4162 106.386 45.7659C106.583 46.1156 106.705 46.5045 106.746 46.907Z" fill="#FFB8B8"/>
<path d="M99.094 48.5371L85.9993 48.9142C85.5266 48.9278 85.057 48.8225 84.6232 48.6057C84.1895 48.3889 83.802 48.0657 83.4877 47.6587C83.1735 47.2518 82.94 46.7708 82.8037 46.2492C82.6673 45.7277 82.6313 45.1782 82.6982 44.639C82.803 43.7942 83.155 43.0159 83.696 42.4329L89.8615 35.7891C91.0049 34.557 92.4297 33.7259 93.9687 33.3935L96.1296 32.9268L97.4 43.9841L90.0595 43.0085L98.6705 44.1467L99.094 48.5371Z" fill="#00BFA6"/>
<path d="M81.5294 82.0344H47.6582C47.357 82.0344 47.0681 81.9106 46.8551 81.69C46.6421 81.4695 46.5225 81.1704 46.5225 80.8585C58.8008 79.381 70.8483 79.381 82.6651 80.8585C82.6651 81.1704 82.5455 81.4695 82.3325 81.69C82.1195 81.9106 81.8306 82.0344 81.5294 82.0344Z" fill="#2F2E41"/>
<path d="M82.6651 80.8924L46.5225 80.8133L50.7113 72.4695L50.7313 72.4299V54.0411C50.7313 53.8179 50.7684 53.5969 50.8406 53.3906C50.9127 53.1844 51.0185 52.9971 51.1518 52.8392C51.2851 52.6814 51.4434 52.5562 51.6176 52.4708C51.7918 52.3854 51.9785 52.3414 52.167 52.3415H76.8202C77.0087 52.3414 77.1954 52.3854 77.3696 52.4708C77.5438 52.5562 77.7021 52.6814 77.8354 52.8392C77.9687 52.9971 78.0744 53.1844 78.1466 53.3906C78.2187 53.5969 78.2559 53.8179 78.2558 54.0411V72.5565L82.6651 80.8924Z" fill="#3F3D56"/>
<path d="M51.3792 53.4835C51.2532 53.4837 51.1323 53.5434 51.0432 53.6495C50.9541 53.7556 50.904 53.8994 50.9038 54.0495V71.1901C50.904 71.3402 50.9541 71.484 51.0432 71.5901C51.1324 71.6962 51.2532 71.7559 51.3792 71.7561H76.714C76.84 71.7559 76.9608 71.6962 77.05 71.5901C77.1391 71.484 77.1892 71.3402 77.1894 71.1901V54.0495C77.1892 53.8994 77.1391 53.7556 77.05 53.6495C76.9608 53.5434 76.84 53.4837 76.714 53.4835L51.3792 53.4835Z" fill="white"/>
<path d="M52.3861 74.0402C52.3481 74.0402 52.3108 74.052 52.2787 74.0741C52.2466 74.0962 52.2211 74.1276 52.2051 74.1648L50.9221 77.1627C50.9081 77.1953 50.902 77.2311 50.9043 77.267C50.9066 77.3028 50.9173 77.3374 50.9353 77.3677C50.9533 77.3979 50.9781 77.4228 51.0074 77.44C51.0367 77.4573 51.0696 77.4663 51.103 77.4663H78.0854C78.1194 77.4663 78.1528 77.457 78.1824 77.4392C78.2121 77.4214 78.237 77.3958 78.2549 77.3647C78.2727 77.3337 78.2829 77.2982 78.2844 77.2618C78.2859 77.2253 78.2788 77.189 78.2636 77.1564L76.8689 74.1585C76.8524 74.1229 76.827 74.0929 76.7956 74.072C76.7641 74.0511 76.7278 74.0401 76.6907 74.0402L52.3861 74.0402Z" fill="#2F2E41"/>
<path d="M61.286 78.6083C61.2418 78.6084 61.1989 78.6187 61.1639 78.6378C61.1289 78.6569 61.1036 78.6837 61.0921 78.714L60.7677 79.5705C60.7596 79.5916 60.7586 79.6138 60.7646 79.6353C60.7705 79.6568 60.7834 79.6771 60.8022 79.6945C60.8209 79.7118 60.845 79.7259 60.8727 79.7356C60.9003 79.7453 60.9307 79.7504 60.9616 79.7504H67.1314C67.1634 79.7504 67.1949 79.7449 67.2234 79.7345C67.2518 79.7241 67.2764 79.709 67.2949 79.6904C67.3135 79.6719 67.3256 79.6504 67.3301 79.6279C67.3346 79.6054 67.3316 79.5824 67.3211 79.5609L66.904 78.7044C66.8903 78.6763 66.8647 78.652 66.8307 78.6348C66.7967 78.6176 66.7559 78.6083 66.7142 78.6083H61.286Z" fill="#2F2E41"/>
<path d="M78.2846 71.7561V72.8981H49.8086L49.8299 72.7549V71.7561H78.2846Z" fill="#2F2E41"/>
<path d="M38.8727 62.0038C38.9462 65.2432 39.4064 68.4542 40.2397 71.5422C40.2587 71.6138 40.2787 71.6844 40.2986 71.7561H45.4001C45.3947 71.6919 45.3893 71.6203 45.3838 71.5422C45.0437 66.9313 43.0825 38.868 45.4273 34.0689C45.2224 34.4582 38.4772 47.3529 38.8727 62.0038Z" fill="#E6E6E6"/>
<path d="M38.8748 71.5423C38.9217 71.6139 38.9707 71.6856 39.0207 71.7561H43.237C43.205 71.6952 43.168 71.6236 43.125 71.5423C42.4285 70.1976 40.3668 66.1773 38.453 62.0096C36.3964 57.5307 34.5096 52.8819 34.6685 51.1994C34.6195 51.5789 33.1964 63.1469 38.8748 71.5423Z" fill="#E6E6E6"/>
<path d="M58.0082 60.3357C60.4798 60.3119 62.951 60.2711 65.4225 60.2401C66.2464 60.2298 67.0703 60.2207 67.8943 60.213C68.6042 60.2061 68.606 59.1869 67.8943 59.1937C65.4227 59.2175 62.9515 59.2583 60.4801 59.2893C59.6561 59.2996 58.8322 59.3087 58.0082 59.3165C57.2983 59.3233 57.2965 60.3425 58.0082 60.3357Z" fill="#00BFA6"/>
<path d="M57.9793 63.7618L67.4268 63.6663L70.1136 63.6391C70.7851 63.6323 70.7868 62.613 70.1136 62.6198L60.6662 62.7154L57.9793 62.7426C57.3079 62.7494 57.3062 63.7686 57.9793 63.7618Z" fill="#00BFA6"/>
<path d="M57.9793 66.0459L67.4268 65.9503L70.1136 65.9231C70.7851 65.9163 70.7868 64.8971 70.1136 64.9039L60.6662 64.9995L57.9793 65.0267C57.3079 65.0335 57.3062 66.0527 57.9793 66.0459Z" fill="#00BFA6"/>
</svg>
